<?xml version="1.0" encoding="utf-8"?>
<!-- Generator: Adobe Illustrator 23.0.2, SVG Export Plug-In . SVG Version: 6.00 Build 0)  -->
<svg version="1.1" id="Capa_1" xmlns="http://www.w3.org/2000/svg" xmlns:xlink="http://www.w3.org/1999/xlink" x="0px" y="0px"
	 viewBox="0 0 27 26" style="enable-background:new 0 0 27 26;" xml:space="preserve">
<style type="text/css">
	.st0{fill:#E8E4ED;}
	.st1{fill:#1B1F55;}
</style>
<g id="budicon-presentation_1_">
	<g>
		<circle class="st0" cx="6" cy="4" r="2"/>
		<path class="st0" d="M6,9C5.65,9,5.32,9.06,5,9.14c1.72,0.45,3,2,3,3.86v3.5C8,16.78,7.78,17,7.5,17H7c-0.55,0-1,0.45-1,1v5.5
			C6,23.78,5.78,24,5.5,24h2C7.78,24,8,23.78,8,23.5V18c0-0.55,0.45-1,1-1h0.5c0.28,0,0.5-0.22,0.5-0.5V13C10,10.79,8.21,9,6,9z"/>
		<g>
			<path class="st1" d="M6,7c1.66,0,3-1.34,3-3S7.66,1,6,1S3,2.34,3,4S4.34,7,6,7z M6,2c1.1,0,2,0.9,2,2S7.1,6,6,6S4,5.1,4,4
				S4.9,2,6,2z"/>
			<path class="st1" d="M11,16.5V13c0-2.76-2.24-5-5-5s-5,2.24-5,5v3.5C1,17.33,1.67,18,2.5,18H3v5.5C3,24.33,3.67,25,4.5,25h3
				C8.33,25,9,24.33,9,23.5V18h0.5C10.33,18,11,17.33,11,16.5z M10,16.5c0,0.28-0.22,0.5-0.5,0.5H9c-0.55,0-1,0.45-1,1v5.5
				C8,23.78,7.78,24,7.5,24h-3C4.22,24,4,23.78,4,23.5V18c0-0.55-0.45-1-1-1H2.5C2.22,17,2,16.78,2,16.5V13c0-2.21,1.79-4,4-4
				s4,1.79,4,4V16.5z"/>
			<path class="st1" d="M23,16.5v-8C23,8.22,22.78,8,22.5,8S22,8.22,22,8.5v8c0,0.28,0.22,0.5,0.5,0.5S23,16.78,23,16.5z"/>
			<path class="st1" d="M14,16.5v-3c0-0.28-0.22-0.5-0.5-0.5S13,13.22,13,13.5v3c0,0.28,0.22,0.5,0.5,0.5S14,16.78,14,16.5z"/>
			<path class="st1" d="M20,16.5v-5c0-0.28-0.22-0.5-0.5-0.5S19,11.22,19,11.5v5c0,0.28,0.22,0.5,0.5,0.5S20,16.78,20,16.5z"/>
			<path class="st1" d="M17,16.5v-9C17,7.22,16.78,7,16.5,7S16,7.22,16,7.5v9c0,0.28,0.22,0.5,0.5,0.5S17,16.78,17,16.5z"/>
			<path class="st1" d="M24.5,3c-2.85,0-11.13,0-14,0C10.22,3,10,3.22,10,3.5S10.22,4,10.5,4c5.23,0,8.67,0,14,0
				C24.78,4,25,4.22,25,4.5v14c0,0.28-0.22,0.5-0.5,0.5h-14c-0.28,0-0.5,0.22-0.5,0.5s0.22,0.5,0.5,0.5h14c0.83,0,1.5-0.67,1.5-1.5
				v-14C26,3.67,25.33,3,24.5,3z"/>
		</g>
	</g>
</g>
</svg>
