<?xml version="1.0" encoding="utf-8"?>
<!-- Generator: Adobe Illustrator 23.0.2, SVG Export Plug-In . SVG Version: 6.00 Build 0)  -->
<svg version="1.1" id="Capa_1" xmlns="http://www.w3.org/2000/svg" xmlns:xlink="http://www.w3.org/1999/xlink" x="0px" y="0px"
	 viewBox="0 0 27 26" style="enable-background:new 0 0 27 26;" xml:space="preserve">
<style type="text/css">
	.st0{fill:#E8E4ED;}
	.st1{fill:#1B1F55;}
</style>
<g id="budicon-basil">
	<g>
		<path class="st0" d="M18,11.72v0.32c0,0.95-0.68,1.77-1.61,1.96L15,14.28v-0.32c0-0.95,0.68-1.77,1.61-1.96L18,11.72"/>
		<path class="st0" d="M9,6.72L10.39,7C11.32,7.18,12,8.01,12,8.96v0.32L10.61,9C9.68,8.82,9,7.99,9,7.04V6.72"/>
		<path class="st0" d="M9,16.72L10.39,17c0.93,0.19,1.61,1.01,1.61,1.96v0.32L10.61,19C9.68,18.82,9,17.99,9,17.04V16.72"/>
		<g>
			<g>
				<path class="st1" d="M13.5,25.5L13.5,25.5c-0.28,0-0.5-0.22-0.5-0.5v-3c0-0.28,0.22-0.5,0.5-0.5l0,0c0.28,0,0.5,0.22,0.5,0.5v3
					C14,25.28,13.78,25.5,13.5,25.5z"/>
			</g>
		</g>
		<g>
			<g>
				<path class="st1" d="M18,6.72v0.32c0,0.95-0.68,1.77-1.61,1.96L15,9.28V8.96c0-0.95,0.68-1.77,1.61-1.96L18,6.72 M19,5.5
					l-2.59,0.52C15.01,6.3,14,7.53,14,8.96v1.54l2.59-0.52C17.99,9.7,19,8.47,19,7.04V5.5L19,5.5z"/>
			</g>
		</g>
		<g>
			<g>
				<path class="st1" d="M18,11.72v0.32c0,0.95-0.68,1.77-1.61,1.96L15,14.28v-0.32c0-0.95,0.68-1.77,1.61-1.96L18,11.72 M19,10.5
					l-2.59,0.52C15.01,11.3,14,12.53,14,13.96v1.54l2.59-0.52c1.4-0.28,2.41-1.51,2.41-2.94V10.5L19,10.5z"/>
			</g>
		</g>
		<g>
			<g>
				<path class="st1" d="M18,16.72v0.32c0,0.95-0.68,1.78-1.61,1.96L15,19.28v-0.32c0-0.95,0.68-1.78,1.61-1.96L18,16.72 M19,15.5
					l-2.59,0.52C15.01,16.3,14,17.53,14,18.96v1.54l2.59-0.52c1.4-0.28,2.41-1.51,2.41-2.94V15.5L19,15.5z"/>
			</g>
		</g>
		<g>
			<g>
				<path class="st1" d="M9,6.72L10.39,7C11.32,7.18,12,8.01,12,8.96v0.32L10.61,9C9.68,8.82,9,7.99,9,7.04V6.72 M8,5.5v1.54
					c0,1.43,1.01,2.66,2.41,2.94L13,10.5V8.96c0-1.43-1.01-2.66-2.41-2.94L8,5.5L8,5.5z"/>
			</g>
		</g>
		<g>
			<g>
				<path class="st1" d="M9,11.72L10.39,12c0.93,0.19,1.61,1.01,1.61,1.96v0.32L10.61,14C9.68,13.82,9,12.99,9,12.04V11.72 M8,10.5
					v1.54c0,1.43,1.01,2.66,2.41,2.94L13,15.5v-1.54c0-1.43-1.01-2.66-2.41-2.94L8,10.5L8,10.5z"/>
			</g>
		</g>
		<g>
			<g>
				<path class="st1" d="M9,16.72L10.39,17c0.93,0.19,1.61,1.01,1.61,1.96v0.32L10.61,19C9.68,18.82,9,17.99,9,17.04V16.72 M8,15.5
					v1.54c0,1.43,1.01,2.66,2.41,2.94L13,20.5v-1.54c0-1.43-1.01-2.66-2.41-2.94L8,15.5L8,15.5z"/>
			</g>
		</g>
		<g>
			<g>
				<path class="st1" d="M13.51,2.42C13.78,2.95,14,3.53,14,4c0,0.49-0.48,0.5-0.5,0.5S13,4.49,13,4C13,3.6,13.22,3,13.51,2.42
					 M13.5,0.5c0,0-1.5,2.08-1.5,3.5c0,0.99,0.79,1.5,1.5,1.5S15,4.99,15,4C15,2.46,13.5,0.5,13.5,0.5L13.5,0.5z"/>
			</g>
		</g>
	</g>
</g>
</svg>
