<?xml version="1.0" encoding="utf-8"?>
<!-- Generator: Adobe Illustrator 23.0.2, SVG Export Plug-In . SVG Version: 6.00 Build 0)  -->
<svg version="1.1" id="Capa_1" xmlns="http://www.w3.org/2000/svg" xmlns:xlink="http://www.w3.org/1999/xlink" x="0px" y="0px"
	 viewBox="0 0 27 26" style="enable-background:new 0 0 27 26;" xml:space="preserve">
<style type="text/css">
	.st0{fill:#E8E4ED;}
	.st1{fill:#1B1F55;}
</style>
<g id="budicon-boom-mic">
	<g>
		<path class="st0" d="M14.76,1.74C14.91,2.13,15,2.56,15,3v8c0,1.93-1.57,3.5-3.5,3.5c-0.44,0-0.87-0.09-1.26-0.24
			c0.51,1.31,1.77,2.24,3.26,2.24c1.93,0,3.5-1.57,3.5-3.5V5C17,3.51,16.07,2.25,14.76,1.74z"/>
		<g>
			<path class="st1" d="M13.5,17.5c2.49,0,4.5-2.02,4.5-4.5V5c0-2.48-2.01-4.5-4.5-4.5S9,2.52,9,5v8C9,15.48,11.01,17.5,13.5,17.5z
				 M10,5c0-1.93,1.57-3.5,3.5-3.5S17,3.07,17,5v8c0,1.93-1.57,3.5-3.5,3.5S10,14.93,10,13V5z"/>
			<path class="st1" d="M19.5,8.5C19.22,8.5,19,8.72,19,9v4c0,3.03-2.47,5.5-5.5,5.5S8,16.03,8,13V9c0-0.28-0.22-0.5-0.5-0.5
				S7,8.72,7,9v4c0,3.41,2.65,6.22,6,6.48v5.02h-1.5c-0.28,0-0.5,0.22-0.5,0.5s0.22,0.5,0.5,0.5H13h1h1.5c0.28,0,0.5-0.22,0.5-0.5
				s-0.22-0.5-0.5-0.5H14v-5.02c3.35-0.26,6-3.06,6-6.48V9C20,8.72,19.78,8.5,19.5,8.5z"/>
		</g>
	</g>
</g>
</svg>
