<?xml version="1.0" encoding="utf-8"?>
<!-- Generator: Adobe Illustrator 23.0.2, SVG Export Plug-In . SVG Version: 6.00 Build 0)  -->
<svg version="1.1" id="Capa_1" xmlns="http://www.w3.org/2000/svg" xmlns:xlink="http://www.w3.org/1999/xlink" x="0px" y="0px"
	 viewBox="0 0 27 26" style="enable-background:new 0 0 27 26;" xml:space="preserve">
<style type="text/css">
	.st0{fill:#E8E4ED;}
	.st1{fill:#1B1F55;}
</style>
<g id="cash-dollar_2_">
	<polygon class="st0" points="21,7.5 21,18.5 2,18.5 2,20.5 23,20.5 23,7.5 	"/>
	<g>
		<path class="st1" d="M23,6.5H2c-0.55,0-1,0.45-1,1v13c0,0.55,0.45,1,1,1h21c0.55,0,1-0.45,1-1v-13C24,6.95,23.55,6.5,23,6.5z
			 M23,20.5H2v-13h21V20.5z"/>
		<path class="st1" d="M24,4.5H3.5C3.22,4.5,3,4.72,3,5s0.22,0.5,0.5,0.5H24c0.55,0,1,0.45,1,1V19c0,0.28,0.22,0.5,0.5,0.5
			S26,19.28,26,19V6.5C26,5.4,25.1,4.5,24,4.5z"/>
		<path class="st1" d="M12.5,16.5h-2c-0.28,0-0.5,0.22-0.5,0.5s0.22,0.5,0.5,0.5H12V18c0,0.28,0.22,0.5,0.5,0.5S13,18.28,13,18v-0.5
			h1c0.55,0,1-0.45,1-1v-2c0-0.55-0.45-1-1-1h-3v-2h1.5h2c0.28,0,0.5-0.22,0.5-0.5s-0.22-0.5-0.5-0.5H13V10c0-0.28-0.22-0.5-0.5-0.5
			S12,9.72,12,10v0.5h-1c-0.55,0-1,0.45-1,1v2c0,0.55,0.45,1,1,1h3v2H12.5z"/>
	</g>
</g>
</svg>
