<?xml version="1.0" encoding="utf-8"?>
<!-- Generator: Adobe Illustrator 23.0.2, SVG Export Plug-In . SVG Version: 6.00 Build 0)  -->
<svg version="1.1" id="Capa_1" xmlns="http://www.w3.org/2000/svg" xmlns:xlink="http://www.w3.org/1999/xlink" x="0px" y="0px"
	 viewBox="0 0 27 26" style="enable-background:new 0 0 27 26;" xml:space="preserve">
<style type="text/css">
	.st0{fill:#E8E4ED;}
	.st1{fill:#1B1F55;}
</style>
<g id="budicon-business-plan_1_">
	<g>
		<polygon class="st0" points="6.53,22.5 6.19,23.5 9,23.5 9.33,22.5 		"/>
		<g>
			<path class="st0" d="M11,16c0-1.18-0.44-2.08-0.91-3.05C9.55,11.86,9,10.73,9,9c0-2.77,2.12-5.19,5-6.11V2.52
				C10.16,2.75,7,5.62,7,9c0,1.73,0.55,2.86,1.09,3.95C8.56,13.92,9,14.83,9,16c0,1.47-0.95,2.68-1.58,3.48
				c-0.01,0.01-0.01,0.01-0.02,0.02h2c0.01-0.01,0.01-0.01,0.02-0.02C10.05,18.68,11,17.47,11,16z"/>
			<path class="st0" d="M19.39,11.16c-1.24-0.27-2.76-0.74-3.53-1.51c-0.2-0.19-0.51-0.19-0.71,0s-0.2,0.51,0,0.71
				c0.08,0.08,0.17,0.15,0.25,0.22c1.02,0.41,2.21,0.65,3,0.78C18.75,11.41,19.09,11.33,19.39,11.16z"/>
		</g>
		<g>
			<path class="st1" d="M20.74,6.99L15,3.71V2c0-0.28-0.22-0.5-0.5-0.5C9.89,1.5,6,4.93,6,9c0,1.96,0.63,3.25,1.19,4.39
				C7.62,14.29,8,15.06,8,16c0,1.13-0.79,2.13-1.37,2.86C6.24,19.36,6,19.66,6,20c0,0.28,0.22,0.5,0.5,0.5h13
				c0.28,0,0.5-0.22,0.5-0.5c0-1.1-0.71-1.87-1.47-2.69c-1.05-1.14-2.35-2.54-2.51-5.47c0.76,0.23,1.54,0.39,2.23,0.5
				c0.89,0.14,1.79-0.21,2.35-0.92l1.3-1.64C21.96,9.7,22,9.59,22,9.48V9.16C22,8.27,21.52,7.43,20.74,6.99z M21,9.3l-1.19,1.5
				c-0.34,0.43-0.87,0.64-1.41,0.55c-1.27-0.21-3.55-0.7-4.55-1.71c-0.2-0.19-0.51-0.19-0.71,0s-0.2,0.51,0,0.71
				c0.47,0.47,1.13,0.84,1.86,1.14c0.08,3.57,1.64,5.26,2.79,6.5c0.53,0.57,0.94,1.02,1.11,1.51H7.4c0.01-0.01,0.01-0.01,0.02-0.02
				C8.05,18.68,9,17.47,9,16c0-1.18-0.44-2.08-0.91-3.05C7.55,11.86,7,10.73,7,9c0-3.38,3.16-6.25,7-6.49V4
				c0,0.18,0.1,0.35,0.25,0.43l5.99,3.42C20.71,8.12,21,8.62,21,9.16L21,9.3L21,9.3z"/>
			<circle class="st1" cx="15.5" cy="7" r="0.5"/>
			<path class="st1" d="M20.42,22.18c-0.14-0.41-0.52-0.68-0.95-0.68H6.53c-0.43,0-0.81,0.28-0.95,0.68l-0.55,1.66
				C4.92,24.17,5.16,24.5,5.5,24.5h15c0.34,0,0.58-0.33,0.47-0.66L20.42,22.18z M6.19,23.5l0.33-1h12.95l0.33,1H6.19z"/>
		</g>
	</g>
</g>
</svg>
