<?xml version="1.0" encoding="utf-8"?>
<!-- Generator: Adobe Illustrator 23.0.2, SVG Export Plug-In . SVG Version: 6.00 Build 0)  -->
<svg version="1.1" id="Capa_1" xmlns="http://www.w3.org/2000/svg" xmlns:xlink="http://www.w3.org/1999/xlink" x="0px" y="0px"
	 viewBox="0 0 27 26" style="enable-background:new 0 0 27 26;" xml:space="preserve">
<style type="text/css">
	.st0{fill:#E8E4ED;}
	.st1{fill:#1B1F55;}
</style>
<g id="budicon-desktop_1_">
	<g>
		<rect x="4" y="4" class="st0" width="19" height="10"/>
		<path class="st0" d="M25,19.5c0,0.28-0.22,0.5-0.5,0.5H16h-5H2.5C2.22,20,2,19.78,2,19.5V17h23V19.5z"/>
		<path class="st1" d="M24.5,1h-22C1.67,1,1,1.67,1,2.5V16v1v2.5C1,20.33,1.67,21,2.5,21h8.3l-0.6,3H8.5C8.22,24,8,24.22,8,24.5
			S8.22,25,8.5,25H10h7h1.5c0.28,0,0.5-0.22,0.5-0.5S18.78,24,18.5,24h-1.7l-0.6-3h8.3c0.83,0,1.5-0.67,1.5-1.5v-17
			C26,1.67,25.33,1,24.5,1z M15.78,24h-4.56l0.6-3h3.36L15.78,24z M25,19.5c0,0.28-0.22,0.5-0.5,0.5H16h-5H2.5
			C2.22,20,2,19.78,2,19.5V17h23V19.5z M25,16H2V2.5C2,2.22,2.22,2,2.5,2h22C24.78,2,25,2.22,25,2.5V16z"/>
	</g>
</g>
</svg>
