<?xml version="1.0" encoding="utf-8"?>
<!-- Generator: Adobe Illustrator 23.0.2, SVG Export Plug-In . SVG Version: 6.00 Build 0)  -->
<svg version="1.1" id="Capa_1" xmlns="http://www.w3.org/2000/svg" xmlns:xlink="http://www.w3.org/1999/xlink" x="0px" y="0px"
	 viewBox="0 0 27 26" style="enable-background:new 0 0 27 26;" xml:space="preserve">
<style type="text/css">
	.st0{fill:#E8E4ED;}
	.st1{fill:#1B1F55;}
</style>
<g id="budicon-search-a_1_">
	<path class="st0" d="M15.3,4.2c-0.85-0.85-1.88-1.47-3-1.83c0.35,0.25,0.69,0.52,1,0.83c2.92,2.92,2.92,7.68,0,10.61
		C11.89,15.22,10,16,8,16c-0.79,0-1.57-0.13-2.31-0.37C6.95,16.52,8.44,17,10,17c2,0,3.89-0.78,5.3-2.2
		C18.23,11.88,18.23,7.12,15.3,4.2z"/>
	<path class="st1" d="M25.06,22.44l-4.95-4.95c-0.29-0.29-0.68-0.44-1.06-0.44c-0.22,0-0.43,0.06-0.64,0.16l-2.07-2.07
		c2.97-3.34,2.86-8.45-0.34-11.65C14.35,1.83,12.17,1,10,1S5.65,1.83,3.99,3.49c-3.32,3.32-3.32,8.7,0,12.02
		C5.65,17.17,7.82,18,10,18c2.02,0,4.03-0.72,5.64-2.15l2.07,2.07c-0.26,0.56-0.18,1.24,0.28,1.7l4.95,4.95
		C23.23,24.85,23.62,25,24,25s0.77-0.15,1.06-0.44C25.65,23.97,25.65,23.03,25.06,22.44z M10,17c-2,0-3.89-0.78-5.3-2.2
		c-2.92-2.92-2.92-7.68,0-10.61C6.11,2.78,8,2,10,2s3.89,0.78,5.3,2.2c2.92,2.92,2.92,7.68,0,10.61C13.89,16.22,12,17,10,17z
		 M24.35,23.85C24.23,23.98,24.08,24,24,24s-0.23-0.02-0.35-0.15L18.7,18.9c-0.13-0.13-0.15-0.28-0.15-0.35
		c0-0.08,0.02-0.23,0.15-0.35c0.13-0.13,0.28-0.15,0.35-0.15c0.08,0,0.23,0.02,0.35,0.15l4.95,4.95c0.13,0.13,0.15,0.28,0.15,0.35
		S24.48,23.73,24.35,23.85z"/>
</g>
</svg>
