<?xml version="1.0" encoding="utf-8"?>
<!-- Generator: Adobe Illustrator 23.0.2, SVG Export Plug-In . SVG Version: 6.00 Build 0)  -->
<svg version="1.1" id="Capa_1" xmlns="http://www.w3.org/2000/svg" xmlns:xlink="http://www.w3.org/1999/xlink" x="0px" y="0px"
	 viewBox="0 0 27 26" style="enable-background:new 0 0 27 26;" xml:space="preserve">
<style type="text/css">
	.st0{fill:#E8E4ED;}
	.st1{fill:#1B1F55;}
</style>
<g id="budicon-departure">
	<g>
		<g>
			<path class="st0" d="M24.95,11.49c-0.18-0.65-0.77-1.11-1.45-1.11c-0.13,0-0.26,0.02-0.39,0.05l-0.17,0.05
				c0,0.01,0.01,0.01,0.01,0.02c0.21,0.8-0.26,1.62-1.06,1.84l-17.15,4.6c-0.09,0.02-0.19,0.03-0.28,0.04l0.14,0.19
				C4.97,17.69,5.58,18,6.22,18c0.17,0,0.35-0.02,0.52-0.07l17.15-4.6C24.69,13.12,25.16,12.29,24.95,11.49z"/>
		</g>
		<g>
			<path class="st1" d="M25.91,11.23c-0.3-1.12-1.31-1.85-2.41-1.85c-0.21,0-0.43,0.03-0.65,0.09l-7.56,2.03L7.81,5.21
				C7.64,5.07,7.42,5,7.2,5C7.11,5,7.02,5.01,6.94,5.03L5.12,5.52C4.4,5.71,4.14,6.59,4.63,7.15l4.86,5.9L6.71,13.8
				c-0.09,0.02-0.17,0.03-0.26,0.03c-0.28,0-0.56-0.12-0.75-0.34l-1.4-1.59c-0.19-0.22-0.47-0.34-0.75-0.34
				c-0.09,0-0.17,0.01-0.26,0.03l-1.18,0.31c-1.01,0.27-1.44,1.47-0.83,2.32l2.5,3.5C4.35,18.55,5.27,19,6.22,19
				c0.26,0,0.52-0.03,0.78-0.1l17.15-4.6C25.48,13.94,26.27,12.57,25.91,11.23z M23.89,13.33l-17.15,4.6C6.57,17.98,6.4,18,6.22,18
				c-0.64,0-1.25-0.31-1.63-0.84l-2.5-3.5C1.96,13.48,2,13.3,2.03,13.2c0.03-0.09,0.12-0.26,0.34-0.31l1.18-0.31l1.4,1.58
				c0.38,0.43,0.93,0.67,1.5,0.67c0.17,0,0.35-0.02,0.52-0.07l2.78-0.75c0.33-0.09,0.59-0.34,0.69-0.66
				c0.1-0.32,0.04-0.68-0.18-0.94L5.38,6.49L7.2,6l7.45,6.26c0.18,0.15,0.41,0.23,0.64,0.23c0.09,0,0.17-0.01,0.26-0.03l7.56-2.03
				c0.13-0.03,0.26-0.05,0.39-0.05c0.68,0,1.27,0.46,1.45,1.11C25.16,12.29,24.69,13.12,23.89,13.33z"/>
			<path class="st1" d="M23.5,20h-7c-0.28,0-0.5,0.22-0.5,0.5s0.22,0.5,0.5,0.5h7c0.28,0,0.5-0.22,0.5-0.5S23.78,20,23.5,20z"/>
		</g>
	</g>
</g>
</svg>
