<?xml version="1.0" encoding="utf-8"?>
<!-- Generator: Adobe Illustrator 23.0.2, SVG Export Plug-In . SVG Version: 6.00 Build 0)  -->
<svg version="1.1" id="Capa_1" xmlns="http://www.w3.org/2000/svg" xmlns:xlink="http://www.w3.org/1999/xlink" x="0px" y="0px"
	 viewBox="0 0 27 26" style="enable-background:new 0 0 27 26;" xml:space="preserve">
<style type="text/css">
	.st0{fill:#E8E4ED;}
	.st1{fill:#1B1F55;}
</style>
<g id="budicon-sightseeing_1_">
	<g>
		<circle class="st0" cx="13.5" cy="16.5" r="4.5"/>
		<g>
			<path class="st1" d="M24.91,16.21C24.73,15.96,20.39,10,13.5,10S2.27,15.96,2.09,16.21c-0.16,0.23-0.11,0.54,0.12,0.7
				c0.22,0.16,0.54,0.11,0.7-0.12C2.95,16.73,7.14,11,13.5,11s10.55,5.73,10.59,5.79c0.1,0.14,0.25,0.21,0.41,0.21
				c0.1,0,0.2-0.03,0.29-0.09C25.02,16.74,25.07,16.43,24.91,16.21z"/>
			<path class="st1" d="M22.09,17.21C22.06,17.26,18.64,22,13.5,22c-5.13,0-8.56-4.74-8.59-4.79c-0.16-0.23-0.47-0.28-0.7-0.12
				c-0.23,0.16-0.28,0.47-0.12,0.7C4.24,18,7.85,23,13.5,23s9.26-5,9.41-5.21c0.16-0.23,0.11-0.54-0.12-0.7
				C22.56,16.94,22.25,16.98,22.09,17.21z"/>
			<path class="st1" d="M17,16.5c0-1.93-1.57-3.5-3.5-3.5S10,14.57,10,16.5s1.57,3.5,3.5,3.5S17,18.43,17,16.5z M11,16.5
				c0-1.38,1.12-2.5,2.5-2.5c0.34,0,0.65,0.07,0.95,0.19C14.18,14.37,14,14.66,14,15c0,0.55,0.45,1,1,1c0.34,0,0.63-0.18,0.81-0.45
				C15.93,15.85,16,16.16,16,16.5c0,1.38-1.12,2.5-2.5,2.5S11,17.88,11,16.5z"/>
			<path class="st1" d="M13.5,9C13.78,9,14,8.78,14,8.5v-5C14,3.22,13.78,3,13.5,3S13,3.22,13,3.5v5C13,8.78,13.22,9,13.5,9z"/>
			<path class="st1" d="M10.05,8.72C10.14,8.9,10.32,9,10.5,9c0.07,0,0.15-0.02,0.22-0.05c0.25-0.12,0.35-0.42,0.22-0.67l-2-4
				C8.82,4.03,8.52,3.93,8.28,4.05S7.93,4.48,8.05,4.72L10.05,8.72z"/>
			<path class="st1" d="M7.15,9.85C7.24,9.95,7.37,10,7.5,10s0.26-0.05,0.35-0.15c0.2-0.2,0.2-0.51,0-0.71l-2-2
				c-0.2-0.2-0.51-0.2-0.71,0s-0.2,0.51,0,0.71L7.15,9.85z"/>
			<path class="st1" d="M16.28,8.95C16.35,8.98,16.42,9,16.5,9c0.18,0,0.36-0.1,0.45-0.28l2-4c0.12-0.25,0.02-0.55-0.22-0.67
				c-0.25-0.12-0.55-0.02-0.67,0.22l-2,4C15.93,8.52,16.03,8.82,16.28,8.95z"/>
			<path class="st1" d="M19.5,10c0.13,0,0.26-0.05,0.35-0.15l2-2c0.19-0.2,0.19-0.51,0-0.71s-0.51-0.2-0.71,0l-2,2
				c-0.19,0.2-0.19,0.51,0,0.71C19.24,9.95,19.37,10,19.5,10z"/>
		</g>
	</g>
</g>
</svg>
