<?xml version="1.0" encoding="utf-8"?>
<!-- Generator: Adobe Illustrator 24.1.0, SVG Export Plug-In . SVG Version: 6.00 Build 0)  -->
<svg version="1.1" id="Capa_1" xmlns="http://www.w3.org/2000/svg" xmlns:xlink="http://www.w3.org/1999/xlink" x="0px" y="0px"
	 viewBox="0 0 27 26" style="enable-background:new 0 0 27 26;" xml:space="preserve">
<style type="text/css">
	.st0{fill:#E8E5FE;}
	.st1{fill:#181F55;}
</style>
<g id="budicon-work-desk">
	<g>
		<title>work-desk</title>
		<g id="budicon-work-desk_2_">
			<rect x="20.8" y="1.5" class="st0" width="3" height="5"/>
			<rect x="7.8" y="19.5" class="st0" width="3" height="3"/>
			<rect x="7.8" y="15.5" class="st0" width="3" height="3"/>
			<path class="st0" d="M24.3,12.5h-3c0.3,0,0.5,0.2,0.5,0.5v1.5h3V13C24.8,12.7,24.5,12.5,24.3,12.5z"/>
			<rect x="5.8" y="8.5" class="st0" width="3" height="3"/>
			<rect x="6.8" y="9.5" class="st1" width="1" height="1"/>
			<path class="st1" d="M24.3,11.5h-3.1l-0.7-2h3.3c0.6,0,1-0.4,1-1v-7c0-0.6-0.4-1-1-1h-11c-0.6,0-1,0.4-1,1v7c0,0.6,0.4,1,1,1h3.3
				l-0.7,2H9.8v-3c0-0.6-0.4-1-1-1h-3c-0.6,0-1,0.4-1,1v3H4.3c-0.8,0-1.5,0.7-1.5,1.5v12c0,0.3,0.2,0.5,0.5,0.5s0.5-0.2,0.5-0.5
				v-1.5h7c0.6,0,1-0.4,1-1v-7h13V25c0,0.3,0.2,0.5,0.5,0.5s0.5-0.2,0.5-0.5V13C25.8,12.2,25.1,11.5,24.3,11.5z M12.8,1.5h11v5h-11
				V1.5z M12.8,7.5h11v1h-11V7.5z M17.1,9.5h2.3l0.7,2h-3.6L17.1,9.5z M5.8,8.5h3v3h-3V8.5z M10.8,22.5h-7v-3h7V22.5z M10.8,18.5h-7
				v-3h7V18.5z M3.8,14.5V13c0-0.3,0.2-0.5,0.5-0.5h20c0.3,0,0.5,0.2,0.5,0.5v1.5H3.8z"/>
			<rect x="20.8" y="7.5" class="st0" width="3" height="1"/>
		</g>
	</g>
</g>
</svg>
