<?xml version="1.0" encoding="utf-8"?>
<!-- Generator: Adobe Illustrator 23.0.2, SVG Export Plug-In . SVG Version: 6.00 Build 0)  -->
<svg version="1.1" id="Capa_1" xmlns="http://www.w3.org/2000/svg" xmlns:xlink="http://www.w3.org/1999/xlink" x="0px" y="0px"
	 viewBox="0 0 27 26" style="enable-background:new 0 0 27 26;" xml:space="preserve">
<style type="text/css">
	.st0{fill:#E8E4ED;}
	.st1{fill:#1B1F55;}
</style>
<g id="budicon-church">
	<path class="st0" d="M22.84,9.79L18.5,5.85l-1,0.91l3.34,3.03c0.1,0.09,0.16,0.23,0.16,0.37v9.68c0.31,0.48,0.5,1.04,0.5,1.66v3H23
		V10.16C23,10.02,22.94,9.89,22.84,9.79z"/>
	<polygon class="st0" points="13,11.5 13,24.5 10,24.5 11,12.5 	"/>
	<g>
		<path class="st1" d="M25.5,24.5H24V10.16c0-0.42-0.18-0.83-0.49-1.11L19,4.95V2.5h0.5C19.78,2.5,20,2.28,20,2s-0.22-0.5-0.5-0.5
			H19V1c0-0.28-0.22-0.5-0.5-0.5S18,0.72,18,1v0.5h-0.5C17.22,1.5,17,1.72,17,2s0.22,0.5,0.5,0.5H18v2.45l-4.51,4.1
			C13.18,9.34,13,9.74,13,10.16v0.61L4.1,13.2C3.45,13.38,3,13.97,3,14.65v9.85H1.5C1.22,24.5,1,24.72,1,25s0.22,0.5,0.5,0.5
			c2.68,0,21,0,24,0c0.28,0,0.5-0.22,0.5-0.5S25.78,24.5,25.5,24.5z M4,24.5v-9.85c0-0.23,0.15-0.42,0.37-0.48L13,11.81V24.5H4z
			 M16.5,24.5v-3c0-1.1,0.9-2,2-2s2,0.9,2,2v3H16.5z M21.5,24.5v-3c0-1.66-1.34-3-3-3s-3,1.34-3,3v3H14V10.16
			c0-0.14,0.06-0.27,0.16-0.37l4.34-3.94l4.34,3.94c0.1,0.09,0.16,0.23,0.16,0.37V24.5H21.5z"/>
		<path class="st1" d="M18.56,11h-0.13c-1.07,0-1.94,0.87-1.94,1.94V16h4v-3.06C20.5,11.87,19.63,11,18.56,11z M19.5,15h-2v-2.06
			c0-0.52,0.42-0.94,0.94-0.94h0.13c0.52,0,0.94,0.42,0.94,0.94V15z"/>
		<path class="st1" d="M9.06,15.5H8.94C7.87,15.5,7,16.37,7,17.44v3.06h4v-3.06C11,16.37,10.13,15.5,9.06,15.5z M10,19.5H8v-2.06
			c0-0.52,0.42-0.94,0.94-0.94h0.13c0.52,0,0.94,0.42,0.94,0.94V19.5z"/>
	</g>
</g>
</svg>
