<?xml version="1.0" encoding="utf-8"?>
<!-- Generator: Adobe Illustrator 23.0.2, SVG Export Plug-In . SVG Version: 6.00 Build 0)  -->
<svg version="1.1" id="Capa_1" xmlns="http://www.w3.org/2000/svg" xmlns:xlink="http://www.w3.org/1999/xlink" x="0px" y="0px"
	 viewBox="0 0 27 26" style="enable-background:new 0 0 27 26;" xml:space="preserve">
<style type="text/css">
	.st0{fill:#E8E4ED;}
	.st1{fill:#1B1F55;}
</style>
<g id="budicon-injury_1_">
	<g>
		<path class="st0" d="M19.35,18.45l-5.15-4.51l4.36-5.23l5.04,4.41C22.52,15.05,20.94,16.89,19.35,18.45z"/>
		<g>
			<path class="st1" d="M19.5,1.5c-2.7,0-4.87,2.03-5.99,3.35C12.39,3.52,10.22,1.5,7.5,1.5C3.61,1.5,1,4.31,1,8.5
				c0,7.44,11.44,15.27,11.93,15.6l0.57,0.4l0.57-0.32C14.55,23.84,26,16.02,26,8.5C26,4.31,23.39,1.5,19.5,1.5z M13.5,23.28
				C13.5,23.28,2,15.5,2,8.5c0-3.5,2-6,5.5-6c3.46,0,6,4,6,4s2.58-4,6-4C23,2.5,25,5,25,8.5c0,1.23-0.35,2.48-0.93,3.71l-5.24-4.59
				c-0.1-0.09-0.23-0.13-0.37-0.12c-0.14,0.01-0.26,0.07-0.34,0.18l-5,6c-0.17,0.21-0.15,0.52,0.05,0.7l5.45,4.77
				C15.97,21.63,13.5,23.28,13.5,23.28z M19.35,18.45l-5.15-4.51l4.36-5.23l5.04,4.41C22.52,15.05,20.94,16.89,19.35,18.45z"/>
			<circle class="st1" cx="19.5" cy="16" r="0.5"/>
			<circle class="st1" cx="21.5" cy="14" r="0.5"/>
			<circle class="st1" cx="17.5" cy="14" r="0.5"/>
			<circle class="st1" cx="19.5" cy="12" r="0.5"/>
		</g>
	</g>
</g>
</svg>
