<?xml version="1.0" encoding="utf-8"?>
<!-- Generator: Adobe Illustrator 24.1.2, SVG Export Plug-In . SVG Version: 6.00 Build 0)  -->
<svg version="1.1" id="Capa_1" xmlns="http://www.w3.org/2000/svg" xmlns:xlink="http://www.w3.org/1999/xlink" x="0px" y="0px"
	 width="284.9px" height="89.9px" viewBox="0 0 284.9 89.9" style="enable-background:new 0 0 284.9 89.9;" xml:space="preserve">
<style type="text/css">
	.st0{enable-background:new    ;}
	.st1{fill:#181F55;}
	.st2{fill:#8DD3E4;}
	.st3{fill:#E8E4ED;}
	.st4{fill:#1B1F55;}
</style>
<g>
	<g>
		<g class="st0">
			<path class="st1" d="M98.9,37.6h-4v-15h4V37.6z"/>
			<path class="st1" d="M113.1,37.6h-5l-3.8-11.3c0.2,1.4,0.5,3.4,0.5,6.2v5.1h-3.5v-15h4.9l3.9,11.3c-0.2-1.5-0.5-3.3-0.5-5.9v-5.4
				h3.5V37.6z"/>
			<path class="st1" d="M125.9,24.2l-1.8,2.1c-1-0.8-2.1-1.2-3.3-1.2c-1.2,0-1.8,0.5-1.8,1.3c0,0.9,0.6,1.2,2.8,1.9
				c3,0.9,4.4,2.2,4.4,4.9c0,2.8-2.3,4.8-6.1,4.8c-2.7,0-4.6-1-5.8-2.2l2-2.2c1.1,0.9,2.3,1.5,3.7,1.5c1.4,0,2.1-0.6,2.1-1.6
				c0-1-0.5-1.4-2.6-2c-3.5-1.1-4.6-2.5-4.6-4.7c0-2.7,2.4-4.5,5.6-4.5C122.9,22.2,124.6,23,125.9,24.2z"/>
			<path class="st1" d="M139,23.9l-1.9,2.3c-0.8-0.7-1.6-1.1-2.6-1.1c-1.8,0-3,1.5-3,4.9c0,3.4,1.2,4.9,3.1,4.9c1.1,0,2-0.6,2.8-1.2
				l1.8,2.3c-1.1,1.1-2.7,2-4.8,2c-4.2,0-7-2.8-7-7.9c0-5,2.9-7.8,6.9-7.8C136.3,22.2,137.7,22.9,139,23.9z"/>
			<path class="st1" d="M145.5,32.1h-1.1v5.5h-4v-15h5.2c4.2,0,6.3,1.5,6.3,4.7c0,1.9-0.9,3.1-2.8,4.1l3.7,6.2h-4.4L145.5,32.1z
				 M144.4,29.4h1.3c1.4,0,2.1-0.6,2.1-2.1c0-1.3-0.8-1.9-2.3-1.9h-1.1V29.4z"/>
			<path class="st1" d="M157.7,37.6h-4v-15h4V37.6z"/>
			<path class="st1" d="M171.5,27.6c0,3.5-2.5,5.2-6,5.2H164v4.8h-4v-15h5.1C169.1,22.6,171.5,24.3,171.5,27.6z M167.5,27.6
				c0-1.4-0.8-2.2-2.3-2.2H164v4.5h1.2C166.6,29.9,167.5,29.3,167.5,27.6z"/>
			<path class="st1" d="M184.1,23.9l-1.9,2.3c-0.8-0.7-1.6-1.1-2.6-1.1c-1.8,0-3,1.5-3,4.9c0,3.4,1.2,4.9,3.1,4.9
				c1.1,0,2-0.6,2.8-1.2l1.8,2.3c-1.1,1.1-2.7,2-4.8,2c-4.2,0-7-2.8-7-7.9c0-5,2.9-7.8,6.9-7.8C181.4,22.2,182.9,22.9,184.1,23.9z"
				/>
			<path class="st1" d="M189.5,37.6h-4v-15h4V37.6z"/>
			<path class="st1" d="M205,30.1c0,4.9-2.5,7.9-6.9,7.9c-4.4,0-6.9-2.9-6.9-7.9c0-4.9,2.5-7.9,6.9-7.9
				C202.5,22.2,205,25.1,205,30.1z M195.4,30.1c0,3.6,0.9,5,2.7,5c1.9,0,2.7-1.4,2.7-5s-0.9-5-2.7-5
				C196.3,25.1,195.4,26.5,195.4,30.1z"/>
			<path class="st1" d="M218.6,37.6h-5l-3.8-11.3c0.2,1.4,0.5,3.4,0.5,6.2v5.1h-3.5v-15h4.9l3.9,11.3c-0.2-1.5-0.5-3.3-0.5-5.9v-5.4
				h3.5V37.6z"/>
			<path class="st1" d="M230,25.5h-5.1v3.2h4.5v2.7h-4.5v3.4h5.5v2.8h-9.4v-15h9.5L230,25.5z"/>
			<path class="st1" d="M242.7,24.2l-1.8,2.1c-1-0.8-2.1-1.2-3.3-1.2c-1.2,0-1.8,0.5-1.8,1.3c0,0.9,0.6,1.2,2.8,1.9
				c3,0.9,4.4,2.2,4.4,4.9c0,2.8-2.3,4.8-6.1,4.8c-2.7,0-4.6-1-5.8-2.2l2-2.2c1.1,0.9,2.3,1.5,3.7,1.5c1.4,0,2.1-0.6,2.1-1.6
				c0-1-0.5-1.4-2.6-2c-3.5-1.1-4.6-2.5-4.6-4.7c0-2.7,2.4-4.5,5.6-4.5C239.6,22.2,241.3,23,242.7,24.2z"/>
		</g>
		<g class="st0">
			<path class="st2" d="M106.1,50.2h-8v5h7v4.3h-7v5.3h8.5v4.4H91.9V45.8h14.8L106.1,50.2z"/>
			<path class="st2" d="M130.1,69.2h-7.8l-5.9-17.6c0.3,2.2,0.8,5.3,0.8,9.7v7.9h-5.5V45.8h7.7l6.1,17.6c-0.4-2.3-0.8-5.2-0.8-9.2
				v-8.5h5.5V69.2z"/>
			<path class="st2" d="M152,64.3h9l-0.7,4.8h-14.5V45.8h6.2V64.3z"/>
			<path class="st2" d="M173.3,41l-8.3,3l-1.5-3l7.6-4.4L173.3,41z M171.5,69.2h-6.2V45.8h6.2V69.2z"/>
			<path class="st2" d="M195.8,69.2H188L182,51.6c0.3,2.2,0.8,5.3,0.8,9.7v7.9h-5.5V45.8h7.7l6.1,17.6c-0.4-2.3-0.8-5.2-0.8-9.2
				v-8.5h5.5V69.2z"/>
			<path class="st2" d="M215.8,50.2h-8v5h7v4.3h-7v5.3h8.5v4.4h-14.7V45.8h14.8L215.8,50.2z"/>
			<path class="st2" d="M232.6,64.4h-6.2l-1,4.8h-6.5l6.9-23.3h7.5l6.9,23.3h-6.6L232.6,64.4z M231.6,60l-2.1-9.7l-2.1,9.7H231.6z"
				/>
		</g>
		<g id="budicon-booklet_1_">
			<g>
				<rect x="66.4" y="29.7" class="st3" width="4.1" height="6.1"/>
				<path class="st3" d="M77.7,21.5h-3.1v41.8c0,0.6-0.4,1-1,1H42v3.1c0,0.5,0.4,1,1,1h34.7c0.6,0,1-0.4,1-1V22.6
					C78.7,22,78.2,21.5,77.7,21.5z"/>
				<g>
					<path class="st4" d="M77.7,19.5H43c-1.7,0-3.1,1.4-3.1,3.1c0,20.3,0,24.6,0,44.9c0,1.7,1.4,3.1,3.1,3.1h34.7
						c1.7,0,3.1-1.4,3.1-3.1V22.6C80.7,20.9,79.3,19.5,77.7,19.5z M78.7,67.4c0,0.6-0.4,1-1,1H43c-0.6,0-1-0.4-1-1v-5.1h2v-4.1h-2
						v-6.1h2V48h-2v-6.1h2v-4.1h-2v-6.1h2v-4.1h-2v-5.1c0-0.6,0.4-1,1-1h34.7c0.6,0,1,0.4,1,1C78.7,22.4,78.7,67.4,78.7,67.4z"/>
					<path class="st4" d="M71.5,44H51.1c-0.6,0-1,0.4-1,1s0.4,1,1,1h20.4c0.6,0,1-0.4,1-1S72.1,44,71.5,44z"/>
					<path class="st4" d="M71.5,52.1H51.1c-0.6,0-1,0.4-1,1c0,0.6,0.4,1,1,1h20.4c0.6,0,1-0.4,1-1C72.5,52.6,72.1,52.1,71.5,52.1z"
						/>
					<path class="st4" d="M70.5,27.7H52.1c-1.1,0-2,0.9-2,2v6.1c0,1.1,0.9,2,2,2h18.4c1.1,0,2-0.9,2-2v-6.1
						C72.5,28.5,71.7,27.7,70.5,27.7z M70.5,35.8H52.1v-6.1h18.4V35.8z"/>
				</g>
			</g>
		</g>
	</g>
</g>
</svg>
